<?xml version="1.0" encoding="UTF-8" standalone="no"?>
<svg
   width="128"
   height="128"
   viewBox="0 0 128 128"
   version="1.1"
   style="clip-rule:evenodd;fill-rule:evenodd;stroke-linejoin:round;stroke-miterlimit:2"
   id="svg6"
   xml:space="preserve"
   sodipodi:docname="nextui_vectorized_plain.svg"
   inkscape:version="1.4 (e7c3feb1, 2024-10-09)"
   inkscape:export-filename="minui_next_vectorized_plain.png"
   inkscape:export-xdpi="96"
   inkscape:export-ydpi="96"
   xmlns:inkscape="http://www.inkscape.org/namespaces/inkscape"
   xmlns:sodipodi="http://sodipodi.sourceforge.net/DTD/sodipodi-0.dtd"
   xmlns="http://www.w3.org/2000/svg"
   xmlns:svg="http://www.w3.org/2000/svg"><sodipodi:namedview
     id="namedview1"
     pagecolor="#ffffff"
     bordercolor="#000000"
     borderopacity="0.25"
     inkscape:showpageshadow="2"
     inkscape:pageopacity="0.0"
     inkscape:pagecheckerboard="0"
     inkscape:deskcolor="#d1d1d1"
     showguides="true"
     inkscape:zoom="5.6568543"
     inkscape:cx="102.70726"
     inkscape:cy="70.799066"
     inkscape:window-width="2848"
     inkscape:window-height="1186"
     inkscape:window-x="1704"
     inkscape:window-y="49"
     inkscape:window-maximized="0"
     inkscape:current-layer="svg6"
     showgrid="true"><sodipodi:guide
       position="11.990693,97.561942"
       orientation="1,0"
       id="guide1"
       inkscape:locked="false" /><sodipodi:guide
       position="116.00931,80.017153"
       orientation="1,0"
       id="guide2"
       inkscape:locked="false" /><sodipodi:guide
       position="-0.85497548,153"
       orientation="0,-1"
       id="guide3"
       inkscape:locked="false" /><sodipodi:guide
       position="42.814668,6.68029"
       orientation="0,-1"
       id="guide4"
       inkscape:locked="false" /><inkscape:grid
       id="grid1"
       units="px"
       originx="0"
       originy="0"
       spacingx="1"
       spacingy="1"
       empcolor="#0099e5"
       empopacity="0.30196078"
       color="#0099e5"
       opacity="0.14901961"
       empspacing="5"
       enabled="true"
       visible="true" /><sodipodi:guide
       position="108,39"
       orientation="0,-1"
       id="guide5"
       inkscape:locked="false" /><sodipodi:guide
       position="77,32"
       orientation="0,-1"
       id="guide6"
       inkscape:locked="false" /></sodipodi:namedview><defs
     id="defs6" /><rect
     style="clip-rule:evenodd;fill:#000000;fill-rule:evenodd;stroke-width:0.122424;stroke-linejoin:round;stroke-miterlimit:2"
     id="rect1"
     width="128"
     height="128"
     x="-2.8421709e-14"
     y="-2.8421709e-14" /><g
     id="g1"
     transform="matrix(0.18708384,0,0,0.18708384,-56.107825,-40.107825)"
     style="display:none"><path
       id="rect27-5-7"
       style="clip-rule:evenodd;fill:#9b2256;fill-opacity:1;fill-rule:evenodd;stroke-width:1.0929;stroke-linejoin:round;stroke-miterlimit:2"
       d="M 716,925.90831 C 713.8847,925.99231 711.7681,926.69111 709.9258,928.04311 705.0128,931.64861 703.9609,938.50511 707.5664,943.41811 L 734.4433,980.04111 707.5664,1016.6662 C 703.9609,1021.5791 705.0128,1028.4377 709.9257,1032.0431 714.8388,1035.6486 721.6973,1034.5948 725.3027,1029.6818 L 748.0879,998.63491 770.8711,1029.6818 C 774.4765,1034.5948 781.335,1035.6485 786.248,1032.0431 791.161,1028.4376 792.2128,1021.5791 788.6074,1016.6661 L 761.7305,980.04121 788.6074,943.41811 C 792.2128,938.50511 791.161,931.64861 786.248,928.04311 781.335,924.43761 774.4765,925.48951 770.8711,930.40251 L 748.0878,961.44931 725.3027,930.40251 C 723.0493,927.33191 719.5254,925.76831 716,925.90831 Z" /><path
       id="rect30"
       style="clip-rule:evenodd;fill:#9b2256;fill-opacity:1;fill-rule:evenodd;stroke-linejoin:round;stroke-miterlimit:2"
       d="M 502,925.90831 C 495.906,925.90831 491,930.81431 491,936.90831 V 979.90831 1022.9083 C 491,1029.0023 495.906,1033.9083 502,1033.9083 H 566 C 572.094,1033.9083 577,1029.0023 577,1022.9083 577,1016.8143 572.094,1011.9083 566,1011.9083 H 513 V 990.90831 H 544 C 550.094,990.90831 555,986.00231 555,979.90831 555,973.81431 550.094,968.90831 544,968.90831 H 513 V 947.90831 H 566 C 572.094,947.90831 577,943.00231 577,936.90831 577,930.81431 572.094,925.90831 566,925.90831 Z" /><path
       id="rect26"
       style="fill:#ffffff"
       d="M 812,421.90831 H 900 C 911.08,421.90831 920,430.82831 920,441.90831 V 841.90831 C 920,852.98831 911.08,861.90831 900,861.90831 H 812 C 800.92,861.90831 792,852.98831 792,841.90831 V 441.90831 C 792,430.82831 800.92,421.90831 812,421.90831 Z" /><path
       id="rect26-2"
       style="fill:#ffffff;stroke-width:0.660578"
       d="M 384,421.90831 C 372.92,421.90831 364,430.82831 364,441.90831 V 593.90831 691.90831 C 364,786.08831 439.82,861.90831 534,861.90831 628.18,861.90831 704,786.08831 704,691.90831 V 499.90831 441.90831 C 704,430.82831 695.08,421.90831 684,421.90831 H 596 C 584.92,421.90831 576,430.82831 576,441.90831 V 593.90831 691.90831 C 576,715.17631 557.268,733.90831 534,733.90831 510.732,733.90831 492,715.17631 492,691.90831 V 499.90831 441.90831 C 492,430.82831 483.08,421.90831 472,421.90831 Z" /><path
       id="rect27-8"
       style="clip-rule:evenodd;fill:#ffffff;fill-rule:evenodd;stroke-linejoin:round;stroke-miterlimit:2"
       d="M 824,249.90831 C 823.9182,249.90831 823.83922,249.91831 823.75781,249.92001 823.58253,249.92401 823.40765,249.93471 823.23242,249.94731 823.01176,249.96251 822.79299,249.98191 822.57617,250.00981 822.48277,250.02221 822.39006,250.03791 822.29688,250.05281 822.00186,250.09841 821.71047,250.15241 821.42383,250.22078 821.40943,250.22478 821.39523,250.22878 821.38083,250.23248 817.42335,251.19408 814.3239,254.27817 813.33981,258.22662 813.32941,258.26772 813.31851,258.30842 813.30861,258.34967 813.24501,258.61799 813.19404,258.89041 813.15041,259.16607 813.13391,259.26768 813.11721,259.36873 813.10351,259.47076 813.07551,259.68636 813.05451,259.90369 813.03901,260.1231 813.02621,260.29738 813.01821,260.47169 813.01361,260.64654 813.01161,260.73444 812.99991,260.8198 812.99991,260.90826 V 346.90826 C 812.99991,353.00226 817.90591,357.90826 823.99991,357.90826 830.09391,357.90826 834.99991,353.00226 834.99991,346.90826 V 294.13482 L 879.14444,353.46099 C 879.22294,353.56649 879.31104,353.6599 879.39249,353.76178 879.47319,353.86317 879.55632,353.96219 879.64053,354.0606 879.78458,354.22853 879.93195,354.39163 880.08389,354.54888 880.18149,354.64998 880.28134,354.74847 880.38272,354.84576 880.54666,355.00298 880.71305,355.15543 880.88468,355.30084 880.98118,355.38264 881.08031,355.46066 881.1796,355.53912 881.35493,355.67753 881.53074,355.81301 881.7128,355.93951 881.82908,356.02041 881.94875,356.09544 882.06827,356.17193 882.24662,356.28584 882.42563,356.39722 882.60929,356.50006 882.74068,356.57376 882.87498,356.64256 883.00968,356.71099 883.18642,356.80059 883.36414,356.88726 883.54483,356.96685 883.6925,357.03205 883.84301,357.09161 883.99405,357.15045 884.17726,357.22165 884.36045,357.29049 884.54679,357.35162 884.69431,357.40012 884.8438,357.44202 884.99405,357.48443 885.19186,357.54013 885.38937,357.59422 885.58975,357.63873 885.74007,357.67213 885.89223,357.69943 886.04483,357.72663 886.24545,357.76243 886.44606,357.79383 886.64835,357.81843 886.80425,357.83743 886.96116,357.85093 887.11905,357.86333 887.32574,357.87953 887.53264,357.89013 887.74014,357.89453 887.82744,357.89653 887.91211,357.90823 887.99991,357.90823 888.08171,357.90823 888.16069,357.89823 888.2421,357.89653 888.41738,357.89253 888.59226,357.88183 888.76749,357.86923 888.98815,357.85403 889.20692,357.83463 889.42374,357.80673 889.51714,357.79433 889.60985,357.77863 889.70303,357.76373 889.99805,357.71813 890.28944,357.66413 890.57608,357.59576 890.58208,357.59476 890.58778,357.59376 890.59368,357.59176 890.60268,357.58976 890.61048,357.58576 890.61908,357.58376 894.57595,356.62231 897.6755,353.53914 898.6601,349.59157 898.6707,349.54997 898.6813,349.50837 898.6913,349.46657 898.7549,349.19825 898.80587,348.92583 898.8495,348.65017 898.866,348.54856 898.8827,348.44751 898.8964,348.34548 898.9244,348.12988 898.9454,347.91255 898.9609,347.69314 898.9738,347.5187 898.9817,347.34471 898.9863,347.1697 898.9883,347.0818 899,346.99644 899,346.90798 V 260.90798 C 899,254.81398 894.094,249.90798 888,249.90798 881.906,249.90798 877,254.81398 877,260.90798 V 313.68142 L 832.85547,254.35525 C 832.77697,254.24975 832.68887,254.15634 832.60742,254.05446 832.52672,253.95307 832.44359,253.85405 832.35938,253.75564 832.21533,253.58771 832.06796,253.42461 831.91602,253.26736 831.81842,253.16626 831.71857,253.06777 831.61719,252.97048 831.45325,252.81326 831.28686,252.66081 831.11523,252.5154 831.01873,252.4336 830.9196,252.35558 830.82031,252.27712 830.64498,252.13871 830.46917,252.00323 830.28711,251.87673 830.17083,251.79583 830.05116,251.7208 829.93164,251.64431 829.75329,251.5304 829.57428,251.41902 829.39062,251.31618 829.25923,251.24248 829.12493,251.17368 828.99023,251.10525 828.81349,251.01565 828.63577,250.92898 828.45508,250.84939 828.30741,250.78419 828.1569,250.72463 828.00586,250.66579 827.82265,250.59459 827.63946,250.52575 827.45312,250.46462 827.3056,250.41612 827.15611,250.37422 827.00586,250.33181 826.80805,250.27611 826.61054,250.22202 826.41016,250.17751 826.25984,250.14411 826.10768,250.11681 825.95508,250.08961 825.75446,250.05381 825.55385,250.02241 825.35156,249.99781 825.19566,249.97881 825.03875,249.96531 824.88086,249.95291 824.67417,249.93671 824.46727,249.92611 824.25977,249.92171 824.17247,249.91971 824.0878,249.90801 824,249.90801 Z" /><path
       id="rect27"
       style="clip-rule:evenodd;fill:#ffffff;fill-rule:evenodd;stroke-linejoin:round;stroke-miterlimit:2"
       d="M 640,249.90831 C 646.094,249.90831 651,254.81431 651,260.90831 V 346.90831 C 651,353.00231 646.094,357.90831 640,357.90831 633.906,357.90831 629,353.00231 629,346.90831 V 260.90831 C 629,254.81431 633.906,249.90831 640,249.90831 Z" /><path
       id="rect28"
       style="fill:#ffffff"
       d="M 385.33203,249.82237 C 383.57753,249.75997 381.77862,250.12446 380.08594,250.96886 376.19278,252.91097 373.96432,256.84375 374,260.92003 V 346.90831 C 374,353.00231 378.906,357.90831 385,357.90831 391.094,357.90831 396,353.00231 396,346.90831 V 308.33019 L 417.33398,351.91026 C 419.28973,355.9055 423.31947,358.14552 427.46875,357.98448 431.97399,358.60392 436.53196,356.33556 438.65234,352.00401 L 460,308.39659 V 346.90831 C 460,353.00231 464.906,357.90831 471,357.90831 477.094,357.90831 482,353.00231 482,346.90831 V 260.90831 C 482,260.84161 481.991,260.77742 481.99,260.71104 481.986,260.51567 481.9747,260.32135 481.9607,260.12706 481.9476,259.93896 481.9323,259.75183 481.9099,259.56651 481.8934,259.43362 481.8726,259.30206 481.8513,259.17003 481.8134,258.93005 481.7715,258.6916 481.71849,258.45714 481.70209,258.38554 481.68159,258.31546 481.66379,258.24425 481.59219,257.95508 481.51348,257.67023 481.41965,257.39073 481.4188,257.38773 481.41865,257.38573 481.41765,257.38273 481.41465,257.37473 481.41065,257.36733 481.40765,257.35933 480.95093,256.01244 480.24391,254.78566 479.33734,253.73238 479.10401,253.46129 478.85752,253.20201 478.59906,252.95504 478.33774,252.70533 478.06379,252.46914 477.77875,252.24605 477.48988,252.01997 477.18955,251.80995 476.87836,251.61324 476.56611,251.41586 476.24422,251.23405 475.91156,251.06832 475.90756,251.06632 475.90356,251.06432 475.89986,251.06232 475.89286,251.05832 475.88556,251.05632 475.87836,251.05232 475.57488,250.90239 475.26346,250.76611 474.94476,250.64412 474.88046,250.61922 474.81589,250.59732 474.7514,250.57382 474.4978,250.48212 474.24193,250.39701 473.97992,250.32382 473.84683,250.28612 473.71313,250.25472 473.57953,250.22225 473.38371,250.17545 473.18753,250.13155 472.98773,250.0953 472.79814,250.0604 472.60929,250.0339 472.41937,250.0094 472.26114,249.9891 472.10312,249.9682 471.94281,249.9547 471.73065,249.9368 471.51972,249.9287 471.30804,249.9234 471.20446,249.9204 471.10375,249.9078 470.99945,249.9078 470.94265,249.9078 470.88803,249.9148 470.83148,249.9158 470.66549,249.9188 470.50056,249.9304 470.33539,249.9412 470.09577,249.9554 469.85765,249.9726 469.6225,250.0018 469.6081,250.0038 469.594,250.0078 469.5795,250.0098 465.22311,250.56815 461.68044,253.64741 460.46036,257.75394 L 428.01758,324.03331 395.5,257.61143 C 394.76707,255.26119 393.26595,253.25832 391.29297,251.88292 389.55471,250.61925 387.47804,249.89872 385.33203,249.82237 Z" /></g><path
     id="rect27-80"
     style="clip-rule:evenodd;fill:#9b2256;fill-opacity:1;fill-rule:evenodd;stroke-width:0.186996;stroke-linejoin:round;stroke-miterlimit:2"
     d="M 101.98462,7.0187617 C 100.84507,7.0187617 99.927667,7.9361633 99.927667,9.075716 99.927667,10.215269 100.84507,11.13267 101.98462,11.13267 H 105.91153 V 25.157359 C 105.91153,26.296912 106.82894,27.214313 107.96849,27.214313 109.10804,27.214313 110.02544,26.296912 110.02544,25.157359 V 11.13267 H 113.95236 C 115.09191,11.13267 116.00931,10.215269 116.00931,9.075716 116.00931,7.9361633 115.09191,7.0187617 113.95236,7.0187617 H 107.96849 Z" /><path
     id="rect27-5-7-8"
     style="clip-rule:evenodd;fill:#9b2256;fill-opacity:1;fill-rule:evenodd;stroke-width:0.204368;stroke-linejoin:round;stroke-miterlimit:2"
     d="M 72.693402,7.001616 C 72.29785,7.0173237 71.902054,7.1479964 71.557552,7.4008147 70.638841,8.0750283 70.44214,9.3571653 71.116354,10.275876 L 76.142223,17.124225 71.116354,23.972965 C 70.44214,24.891657 70.638841,26.174186 71.557533,26.848381 72.476263,27.522595 73.758774,27.325539 74.432968,26.406828 L 78.693706,20.601188 82.95407,26.406828 C 83.628265,27.325539 84.910776,27.522576 85.829487,26.848381 86.748197,26.174168 86.944879,24.891657 86.270685,23.972946 L 81.244816,17.124244 86.270685,10.275876 C 86.944879,9.3571653 86.748197,8.0750283 85.829487,7.4008147 84.910776,6.7266012 83.628265,6.9233021 82.95407,7.8420128 L 78.693688,13.647636 74.432968,7.8420128 C 74.011592,7.2678233 73.352637,6.9754366 72.693402,7.001616 Z" /><path
     id="rect30-0"
     style="clip-rule:evenodd;fill:#9b2256;fill-opacity:1;fill-rule:evenodd;stroke-width:0.186996;stroke-linejoin:round;stroke-miterlimit:2"
     d="M 43.434673,7.001616 C 42.29512,7.001616 41.377719,7.9190176 41.377719,9.0585704 V 17.099392 25.140212 C 41.377719,26.279764 42.29512,27.197166 43.434673,27.197166 H 55.402407 C 56.54196,27.197166 57.459362,26.279764 57.459362,25.140212 57.459362,24.000659 56.54196,23.083257 55.402407,23.083257 H 45.491627 V 19.156346 H 51.288499 C 52.428051,19.156346 53.345453,18.238945 53.345453,17.099392 53.345453,15.959839 52.428051,15.042438 51.288499,15.042438 H 45.491627 V 11.115525 H 55.402407 C 56.54196,11.115525 57.459362,10.198123 57.459362,9.0585704 57.459362,7.9190176 56.54196,7.001616 55.402407,7.001616 Z" /><path
     id="rect27-8-9"
     style="clip-rule:evenodd;fill:#9b2256;fill-opacity:1;fill-rule:evenodd;stroke-width:0.186996;stroke-linejoin:round;stroke-miterlimit:2"
     d="M 14.096588,7.0188234 C 14.081292,7.0188234 14.066523,7.0206933 14.0513,7.0210112 14.018523,7.0217592 13.985821,7.0237601 13.953054,7.0261162 13.911792,7.0289585 13.870882,7.0325863 13.830338,7.0378034 13.812873,7.0401222 13.795536,7.043058 13.778112,7.0458443 13.722944,7.0543713 13.668456,7.0644691 13.614855,7.077254 13.612162,7.0780019 13.609507,7.0787499 13.606814,7.0794418 12.866782,7.259257 12.287198,7.8359691 12.103177,8.5743128 12.101232,8.5819983 12.099194,8.5896091 12.097343,8.5973227 12.08545,8.6474974 12.075919,8.6984388 12.06776,8.7499861 12.064675,8.7689867 12.061552,8.7878826 12.05899,8.8069618 12.053754,8.8472781 12.049827,8.8879179 12.046929,8.9289467 12.044535,8.9615363 12.043039,8.9941316 12.042179,9.0268278 12.041805,9.0432647 12.039617,9.0592267 12.039617,9.0757684 V 25.157397 C 12.039617,26.296949 12.957019,27.214351 14.096571,27.214351 15.236124,27.214351 16.153526,26.296949 16.153526,25.157397 V 15.288997 L 24.40837,26.382743 C 24.423049,26.402471 24.439523,26.419936 24.454754,26.438991 24.469845,26.457934 24.48539,26.476465 24.501137,26.494866 24.528073,26.526262 24.555631,26.556761 24.584043,26.586176 24.602294,26.605081 24.620965,26.6235 24.639923,26.641676 24.670579,26.671091 24.701693,26.699589 24.733787,26.726778 24.751833,26.742074 24.770369,26.75666 24.788936,26.771339 24.821722,26.797219 24.854598,26.822557 24.888642,26.846212 24.910386,26.86134 24.932764,26.875365 24.955114,26.88967 24.988465,26.910969 25.021939,26.9318 25.056282,26.951023 25.080852,26.964805 25.105965,26.97767 25.131154,26.990479 25.164203,27.007234 25.197436,27.023428 25.231224,27.038313 25.258838,27.050505 25.286983,27.06165 25.315227,27.072645 25.349486,27.08596 25.383742,27.098844 25.418587,27.110269 25.446172,27.119338 25.474126,27.127173 25.502223,27.135102 25.539212,27.145518 25.576146,27.155634 25.613616,27.163955 25.641725,27.170201 25.670178,27.175306 25.698714,27.180392 25.736229,27.187087 25.773742,27.192959 25.81157,27.197559 25.840722,27.201112 25.870064,27.203636 25.899589,27.205955 25.938239,27.208984 25.976928,27.210966 26.01573,27.211789 26.032055,27.212163 26.047888,27.214351 26.064306,27.214351 26.079602,27.214351 26.094371,27.212481 26.109594,27.212163 26.142371,27.211415 26.175073,27.209414 26.20784,27.207058 26.249103,27.204216 26.290012,27.200588 26.330556,27.195371 26.348022,27.193052 26.365358,27.190116 26.382782,27.18733 26.43795,27.178803 26.492438,27.168705 26.546039,27.155915 26.547161,27.155728 26.548227,27.155541 26.54933,27.155167 26.551013,27.154793 26.552472,27.154045 26.55408,27.153671 27.293998,26.973893 27.873601,26.397347 28.057717,25.659181 28.059699,25.651402 28.061681,25.643623 28.063551,25.635807 28.075444,25.585617 28.084976,25.534679 28.093134,25.483143 28.09622,25.464126 28.099342,25.445239 28.101904,25.426166 28.10714,25.385849 28.111067,25.345196 28.113966,25.30417 28.116378,25.271557 28.117855,25.23902 28.118715,25.206296 28.119089,25.189859 28.121277,25.17389 28.121277,25.157359 V 9.075716 C 28.121277,7.9361633 27.203875,7.0187617 26.064323,7.0187617 24.92477,7.0187617 24.007368,7.9361633 24.007368,9.075716 V 18.94413 L 15.752524,7.8503827 C 15.737845,7.8306546 15.721371,7.8131873 15.70614,7.7941362 15.69105,7.7751767 15.675505,7.7566604 15.659758,7.7382581 15.632821,7.7068559 15.605263,7.6763569 15.576851,7.6469518 15.5586,7.6280465 15.539929,7.6096293 15.520971,7.5914364 15.490315,7.562037 15.459201,7.5335294 15.427107,7.5063384 15.409062,7.4910421 15.390525,7.4764527 15.371958,7.461781 15.339172,7.4358989 15.306296,7.4105647 15.272252,7.3869097 15.250508,7.3717818 15.22813,7.3577515 15.20578,7.3434482 15.17243,7.3221475 15.138956,7.3013199 15.104612,7.2820892 15.080043,7.2683076 15.054929,7.2554423 15.029741,7.2426462 14.996691,7.2258914 14.963458,7.2096844 14.92967,7.1948014 14.902056,7.1826093 14.873911,7.1714718 14.845668,7.160469 14.811408,7.1471549 14.777152,7.1342821 14.742307,7.122851 14.714722,7.1137817 14.686768,7.1059466 14.658672,7.0980161 14.621682,7.0876004 14.584748,7.0774858 14.547278,7.0691627 14.519169,7.062917 14.490716,7.057812 14.46218,7.0527257 14.424665,7.0460313 14.387152,7.0401596 14.349324,7.0355595 14.320172,7.0320066 14.29083,7.0294821 14.261305,7.0271634 14.222655,7.024134 14.183966,7.0221519 14.145164,7.0213291 14.128839,7.0209551 14.113007,7.0187673 14.096588,7.0187673 Z" /><path
     id="rect26-4"
     style="clip-rule:evenodd;fill:#ffffff;fill-rule:evenodd;stroke-width:0.186996;stroke-linejoin:round;stroke-miterlimit:2"
     d="M 95.804444,38.721823 H 112.26008 C 114.33199,38.721823 116,40.389826 116,42.46174 V 117.26008 C 116,119.33199 114.33199,121 112.26008,121 H 95.804444 C 93.73253,121 92.064527,119.33199 92.064527,117.26008 V 42.46174 C 92.064527,40.389826 93.73253,38.721823 95.804444,38.721823 Z" /><path
     id="rect26-2-6"
     style="clip-rule:evenodd;fill:#ffffff;fill-rule:evenodd;stroke-width:0.123525;stroke-linejoin:round;stroke-miterlimit:2"
     d="M 15.73061,38.721823 C 13.658696,38.721823 11.990693,40.389826 11.990693,42.46174 V 70.885109 89.210703 C 11.990693,106.82197 26.168719,121 43.779988,121 61.391257,121 75.569282,106.82197 75.569282,89.210703 V 53.307499 42.46174 C 75.569282,40.389826 73.901279,38.721823 71.829365,38.721823 H 55.373731 C 53.301817,38.721823 51.633814,40.389826 51.633814,42.46174 V 70.885109 89.210703 C 51.633814,93.561722 48.131007,97.064528 43.779988,97.064528 39.428968,97.064528 35.926162,93.561722 35.926162,89.210703 V 53.307499 42.46174 C 35.926162,40.389826 34.258159,38.721823 32.186245,38.721823 Z" /></svg>
